<svg xmlns="http://www.w3.org/2000/svg" width="512" height="512" xml:space="preserve"><path fill-rule="evenodd" clip-rule="evenodd" fill="#DD4B39" d="M496.36 143.961c0 .016-.016.055-.016.07-.109 0-.234-.035-.344-.035h-16c-26.516 0-48.008 21.492-48.008 48.004V208.004c0 8.824-7.156 15.984-16 15.984-8.828 0-15.984-7.16-15.984-15.984V192c0-44.184 35.805-80.008 79.992-80.008h16c8.844 0 16 7.176 16 16.004.001 8.715-6.952 15.75-15.64 15.965zm-144.359.035h-16c-8.844 0-16-7.156-16-16 0-8.703 7-15.754 15.641-15.969 0-.016.016-.055.016-.07.109 0 .234.035.344.035h16c26.516 0 48.008-21.492 48.008-47.988v-16c0-8.848 7.156-16.004 15.984-16.004 8.844 0 16 7.156 16 16.004v16c-.001 44.168-35.806 79.992-79.993 79.992zm-80.008-79.992H143.997c-44.188 0-79.992 30.445-79.992 67.992 0 27.16 18.746 50.516 45.832 61.422l-.051.125c6.098 2.262 10.457 8.074 10.457 14.945 0 8.844-7.156 16-15.984 16-2.762 0-5.309-.75-7.57-1.973-38.156-15.93-64.688-50.41-64.688-90.52C32.001 76.758 82.142 32 143.997 32h127.996c8.844 0 16 7.156 16 16.004 0 8.824-7.156 16-16 16zM88.009 312c0-8.844 7.156-16 16-16 8.828 0 15.984 7.156 15.984 16 0 8.828-7.156 16-15.984 16-8.844 0-16-7.172-16-16zm-49.121 11.75c2.586-1.938 5.758-3.125 9.238-3.125 8.559 0 15.5 6.922 15.5 15.5 0 5.219-2.602 9.828-6.566 12.633l.129.164c-15.664 10.508-25.188 24.125-25.188 39.062 0 33.156 46.57 60.016 103.992 60.016 57.445 0 104.016-26.859 104.016-60.016 0-20.234-17.422-38.078-44.023-48.953l.051-.156c-30.496-12.219-52.039-41.969-52.039-76.82 0-31.465 17.543-58.824 43.375-72.832l-.055-.09c22.066-12.109 36.688-33.152 36.688-57.137 0-5.312-.789-10.461-2.152-15.43l.125-.035c-.43-1.453-.734-2.941-.734-4.539 0-8.828 7.176-16.004 16-16.004 8.234 0 14.945 6.246 15.824 14.227 1.777 7.035 2.941 14.281 2.941 21.781 0 34.801-20.055 65.281-50.266 83.184-.898.68-1.992 1.418-3.516 2.277a51.218 51.218 0 0 0-11.121 8.449c-20.094 20.109-20.094 52.688 0 72.797 5.039 5.023 10.871 8.812 17.094 11.32a17.164 17.164 0 0 1 3.301 1.742c36.363 16.523 60.492 44.383 60.492 76.219 0 50.828-60.887 92.016-136 92.016C60.884 480 .001 438.812.001 387.984c0-25.039 14.832-47.719 38.832-64.312l.055.078z"/></svg>